<svg xmlns="http://www.w3.org/2000/svg" xmlns:xlink="http://www.w3.org/1999/xlink" viewBox="0 0 258 38" fill="#fff" fill-rule="evenodd" stroke="#000" stroke-linecap="round" stroke-linejoin="round"><use xlink:href="#B" x=".5" y=".5"/><defs><linearGradient id="A" x1="108.63%" y1="13.82%" x2="46.93%" y2="78.78%"><stop offset="18%" stop-color="#0052cc"/><stop offset="100%" stop-color="#2684ff"/></linearGradient></defs><symbol id="B" overflow="visible"><g stroke="none" fill-rule="nonzero"><path d="M67.486 2.644c6.812 0 10.103 3.349 10.103 8.741 0 4.041-1.83 6.501-5.589 7.419 4.93.808 7.367 3.504 7.367 8.227 0 5.334-3.608 8.995-11.073 8.995H54.531V2.644zm-8.383 4.37v9.959h7.771c4.318 0 6.096-1.98 6.096-5.196s-1.928-4.774-6.096-4.774zm0 14.029v10.392h9.353c4.37 0 6.35-1.576 6.35-4.93 0-3.556-1.882-5.485-6.449-5.485zM86.844.866a2.85 2.85 0 0 1 3.048 3.048 3.05 3.05 0 0 1-3.048 3.048 3.05 3.05 0 0 1-3.048-3.048A2.85 2.85 0 0 1 86.844.866zm-2.234 9.757h4.37v25.402h-4.37zm21.055 21.13c.924-.028 1.842-.148 2.742-.358v4.215a10.5 10.5 0 0 1-2.944.404c-5.438 0-8.082-3.198-8.082-7.926V14.681h-4.116V10.64h4.116V5.231h4.243v5.386h6.755v4.041h-6.755v13.336c0 2.234 1.328 3.753 4.041 3.753zm20.755 4.774c-3.706 0-6.553-1.674-8.082-4.976v4.468h-4.37V0h4.399v15.183c1.628-3.348 4.676-5.08 8.585-5.08 6.755 0 10.161 5.739 10.161 13.209-.023 7.159-3.579 13.209-10.692 13.209zm-.664-22.354c-3.926 0-7.39 2.483-7.39 8.129v2.032c0 5.64 3.198 8.128 6.928 8.128 4.93 0 7.471-3.25 7.471-9.145-.046-6.097-2.482-9.145-7.009-9.145zm15.905-3.556h4.37v15.362c0 4.572 1.83 6.604 5.993 6.604 4.041 0 6.859-2.69 6.859-7.823V10.623h4.37v25.402h-4.37v-4.168a8.91 8.91 0 0 1-8.025 4.676c-5.843 0-9.197-4.041-9.197-11.027zm46.128 24.744c-1.524.808-3.868 1.155-6.2 1.155-9.041 0-13.278-5.485-13.278-13.278 0-7.678 4.214-13.163 13.278-13.163a13.43 13.43 0 0 1 6.056 1.253v4.041a12.8 12.8 0 0 0-5.773-1.195c-6.605 0-9.295 4.157-9.295 9.093s2.742 9.093 9.399 9.093c1.964.052 3.921-.257 5.773-.912zm4.982.658V0h4.37v22.515l10.923-11.893h5.692l-11.945 12.47 12.447 12.932h-5.946l-11.177-11.893v11.893zm35.967.508c-9.503 0-13.665-5.485-13.665-13.278 0-7.678 4.272-13.163 11.991-13.163 7.823 0 10.969 5.438 10.969 13.163v1.98h-18.543c.612 4.318 3.406 7.112 9.399 7.112 2.635 0 5.25-.464 7.724-1.368v4.041c-2.078 1.108-5.282 1.513-7.875 1.513zm-9.295-15.01h14.173c-.254-4.722-2.39-7.418-6.755-7.418-4.63-.023-6.962 2.973-7.418 7.39zm33.831 10.236c.924-.028 1.842-.148 2.742-.358v4.215a10.5 10.5 0 0 1-2.944.404c-5.438 0-8.083-3.198-8.083-7.926V14.681h-4.116V10.64h4.116V5.231h4.272v5.386h6.755v4.041h-6.755v13.336c.006 2.234 1.316 3.753 4.018 3.753z" fill="#253858"/><path d="M1.17 3.614c-.341-.004-.667.142-.889.401s-.32.602-.265.939l4.907 29.755a1.57 1.57 0 0 0 1.536 1.31h23.52c.572.007 1.063-.405 1.155-.97L36.04 4.965c.055-.337-.042-.68-.265-.939s-.548-.405-.889-.401zm20.639 21.499h-7.505l-2.032-10.623h11.356z" fill="#2684ff"/><path d="M34.464 14.502H23.628l-1.819 10.623h-7.505L5.442 35.638c.281.243.639.378 1.01.381h23.526c.572.007 1.063-.405 1.155-.97z" fill="url(#A)"/></g></symbol></svg>