<svg xmlns="http://www.w3.org/2000/svg" xmlns:xlink="http://www.w3.org/1999/xlink" viewBox="0 0 111 25" fill="#fff" fill-rule="evenodd" stroke="#000" stroke-linecap="round" stroke-linejoin="round"><use xlink:href="#A" x=".5" y=".5"/><symbol id="A" overflow="visible"><g stroke="none"><path d="M36.729 9.527c.835-1.953.821-3.865.31-5.387-.633-1.872-3.232-4.323-4.067-3.353-.108.135-1.603-.04-1.845.283-.35.471-.148.619.027.781.525.471 1.872.983 2.464 2.572.256.673.848 2.249-.175 3.192-1.172 1.064-2.478 1.306-7.838-3.676C19.896-1.381 12.22.787 9.688 1.622c-2.545.848-3.703 1.683-2.707 3.649 1.36 2.666.916 1.845 2.235 4.04 2.101 3.501 6.693-1.616 6.693-1.616-3.42 5.158-6.356 3.905-7.487 2.114-1.01-1.629-1.804-3.501-1.804-3.501C-2.055 9.446.288 23.236.288 23.236h4.309c1.104-5.077 5.023-4.888 5.696 0h3.286c2.909-9.925 9.117 0 9.117 0h3.69c0-5.292-.552-7.285 2.155-7.649 4.633-.633 6.787-2.801 8.188-6.06z" fill="#02303a"/><path d="M52.283 8.18v2.087c.444-.768 1.468-2.491 4.754-2.397l-.014 3.609c-.768.027-2.087.054-3.178.875-1.508 1.145-1.562 2.639-1.562 5.077v5.575h-3.407V8.166zm6.168 4.458c.067-.741.121-1.454.593-2.316 1.414-2.559 4.915-2.545 5.858-2.532 1.414 0 3.111.189 4.404.956 1.724 1.064 1.751 2.451 1.751 4.026l-.027 7.784c0 1.118 0 1.576.633 2.451h-4.175l-.081-1.239c-.768.646-2.33 1.495-4.35 1.481-3.326-.014-5.319-2.074-5.306-4.606 0-.741.175-1.414.471-1.993 1.064-2.114 3.326-2.572 4.74-2.841 4.807-.808 4.525-1.279 4.457-1.993-.067-.687-.768-1.32-2.383-1.32-1.468 0-2.263.458-2.613.929-.377.471-.35.768-.364 1.185h-3.609zm9.076 2.976c-.7.35-1.495.606-3.084.875-1.266.175-2.936.458-2.949 2.02 0 1.145.97 1.737 2.37 1.737 1.791 0 3.057-.808 3.448-1.697.202-.444.215-.875.215-1.32zM86.852 2.227l-.067 20.779h-3.501v-1.441c-1.091 1.32-2.559 1.845-4.08 1.831-3.501-.014-6.518-2.639-6.504-7.487.013-4.377 2.491-8.107 6.693-8.093 1.441 0 2.774.417 3.892 1.656V2.227zm-4.363 10.235c-.525-.795-1.401-1.36-2.586-1.36-2.384-.013-3.528 2.128-3.542 4.457 0 .269.014 4.673 3.448 4.686 1.818 0 3.474-1.347 3.447-4.511-.013-.956-.121-2.303-.768-3.272zM92.993 2.227l-.067 20.779H89.37V2.227zm15.769 17.332c-1.643 2.882-3.703 3.932-6.706 3.932-3.851-.014-7.541-2.464-7.528-7.878.013-4.942 3.205-7.716 7.339-7.703 3.878.014 5.494 2.343 5.777 2.788 1.198 1.71 1.454 4.269 1.481 5.737l-10.881-.04c.404 2.33 1.845 3.649 4.161 3.663 2.41.013 3.057-1.414 3.488-2.02zm-3.501-5.737c-.31-2.289-1.724-3.097-3.286-3.097-1.885 0-3.178 1.077-3.596 3.07zm-67.239-1.67v3.043h5.198v3.582c-1.333.862-2.855 1.333-5.036 1.333-3.515 0-6.41-2.949-6.41-7.541 0-4.498 2.666-7.514 6.72-7.514 3.259 0 4.484 2.693 4.673 3.69h3.569c0-2.074-2.464-7.164-8.551-7.164-6.451 0-10.262 4.579-10.262 11.016 0 6.679 4.565 10.881 10.033 10.881 8.08 0 8.794-4.053 8.794-4.053v-7.272z" fill="#22da27" fill-rule="nonzero"/><path d="M37.389 5.932c-.781.067-1.562.202-2.316.404-.027.027-.04.054-.067.094-.337.377-.754.754-1.239.956a1.23 1.23 0 0 1-.188.094c-.04.04-.081.094-.135.135-1.172 1.064-2.586 1.306-7.838-3.676C19.95-1.421 12.233.801 9.688 1.636s-3.703 1.67-2.707 3.636c1.36 2.666.916 1.845 2.235 4.04 2.101 3.501 6.693-1.616 6.693-1.616-3.42 5.158-6.356 3.905-7.487 2.114-1.01-1.63-1.804-3.501-1.804-3.501C-2.055 9.446.288 23.236.288 23.236h4.309c1.104-5.077 5.023-4.888 5.696 0h3.286c2.909-9.925 9.117 0 9.117 0h3.69c0-5.292-.552-7.285 2.155-7.649 4.619-.633 6.774-2.788 8.174-6.06.552-1.252.741-2.478.673-3.596z" fill="#02303a"/><path d="M21.74 7.318L26.4 8.867c-.148.714-1.481 2.087-3.205 1.508-2.262-.754-1.454-3.057-1.454-3.057z"/><path d="M22.824 8.885c-.068-.638.409-1.208 1.07-1.278s1.246.387 1.314 1.025-.409 1.208-1.07 1.278-1.246-.387-1.314-1.025zm8.33-7.034c.148.135.337.256.525.377.902-.741 2.06-.727 3.03-1.131C33.834.289 32.46-.33 32.016.195c-.108.135-.646.552-.889.875-.35.471-.148.619.027.781z" fill="#02303a"/></g></symbol></svg>