<svg xmlns="http://www.w3.org/2000/svg" xmlns:xlink="http://www.w3.org/1999/xlink" viewBox="0 0 101 15" fill="#fff" fill-rule="evenodd" stroke="#000" stroke-linecap="round" stroke-linejoin="round"><use xlink:href="#A" x=".5" y=".5"/><symbol id="A" overflow="visible"><g stroke="none" fill-rule="nonzero"><path d="M74.602.03c.174.145.405.174.58.318.84.694.723 1.9-.23 2.46l-5.847 3.386-1.186.666c.058.116.174.145.3.203l6.714 3.878c.58.318.868.8.8 1.447-.087 1.1-1.273 1.707-2.286 1.157l-3.096-1.765-5.276-3.038c-.232-.116-.376-.145-.58 0l-8.297 4.812c-.84.492-1.823.203-2.228-.637-.347-.694-.087-1.505.608-1.9l7.032-4.05c-.03-.145-.174-.174-.26-.23l-6.5-3.762c-.608-.347-1.07-.78-1.013-1.534s.52-1.157 1.186-1.4h.695c.203.087.405.203.608.318l8.102 4.688c.3.174.492.145.78 0L73.86.07c.23-.03.492-.03.752-.03zm-48.7 0c.174.087.376.145.55.26a1.47 1.47 0 0 1 .579 1.62 1.43 1.43 0 0 1-1.418 1.042h-7.698c-.347 0-.434.058-.434.434v8.652c0 .232 0 .492-.058.723-.174.637-.84 1.07-1.505 1.013-.723-.087-1.273-.608-1.302-1.302V3.454c0-.492 0-.492-.463-.492H6.945c-.84 0-1.447-.463-1.592-1.157-.145-.78.23-1.4 1.07-1.707.03 0 .03-.03.03-.058h19.446zm73.905 1.852c-.145.087-.145.26-.232.376a1.54 1.54 0 0 1-1.302.666h-7.755c-.318 0-.376.087-.376.376v9c0 .637-.347 1.157-.926 1.36-.55.203-1.157.058-1.592-.405-.26-.3-.347-.637-.347-1.013V3.387c0-.463 0-.463-.463-.463H79.58c-.84 0-1.505-.492-1.592-1.186-.116-.8.318-1.534 1.157-1.707 0 0 0-.03.03-.03h19.446c.58.174.955.55 1.186 1.1v.78z" fill="#0a4a75"/><path d="M50.294.03c.666.26 1.13.695 1.13 1.447 0 .78-.55 1.4-1.33 1.447h-19.04c-.984 0-1.65-.752-1.505-1.736.087-.492.347-.8.78-1.042.087-.058.174-.087.26-.145l19.706.03z" fill="#f89d26"/><path d="M73.82.03l-8.652 4.977c-.3.174-.492.174-.78 0L56.274.319l-.608-.318 18.144.03z" fill="#fefefe"/><path d="M1.737.03c.26.145.52.232.723.434a1.46 1.46 0 0 1 .434 1.07v10.68c0 .637-.3 1.157-.897 1.418-.58.23-1.13.145-1.563-.3-.3-.3-.434-.637-.434-1.07V1.534C0 .811.318.348.984.087c.058-.03.116-.03.145-.087.203.03.405.03.608.03z" fill="#f89d26"/><path d="M99.806 1.13c-.203-.55-.608-.955-1.186-1.1h1.042c.116 0 .145.03.145.145v.955z" fill="#fefefe"/><path d="M40.454 13.746h-9.376c-.8 0-1.418-.463-1.563-1.157-.174-.926.434-1.707 1.4-1.765h18.896c.608 0 1.13.203 1.418.752.58 1.013-.145 2.17-1.33 2.2h-6.598l-2.836-.03zm.02-8.334h9.405c.897 0 1.534.58 1.534 1.447s-.637 1.476-1.534 1.476h-18.8c-.752 0-1.33-.434-1.505-1.07s.116-1.302.666-1.65a1.71 1.71 0 0 1 .84-.203h9.394z" fill="#f89d26"/></g></symbol></svg>