<svg xmlns="http://www.w3.org/2000/svg" xmlns:xlink="http://www.w3.org/1999/xlink" viewBox="0 0 108.882 49.882" fill="#fff" fill-rule="evenodd" stroke="#000" stroke-linecap="round" stroke-linejoin="round"><use xlink:href="#B" x="2.441" y="2.441"/><defs><linearGradient x1="57.66%" y1="2.08%" x2="57.66%" y2="94.46%" id="A"><stop stop-color="#97d9f6" offset="0%"/><stop stop-color="#0f80cc" offset="92.024%"/></linearGradient></defs><symbol id="B" overflow="visible"><g stroke="none" fill-rule="nonzero"><path d="M40.415 20.128c-1.347 0-2.441.4-3.28 1.196s-1.269 1.845-1.269 3.124a5.23 5.23 0 0 0 .312 1.826c.205.557.537 1.074.967 1.538s1.308 1.098 2.612 1.953c1.596.976 2.636 1.767 3.144 2.382.472.537.738 1.224.752 1.938 0 .903-.293 1.621-.908 2.163s-1.43.81-2.441.81c-1.074 0-1.953-.376-2.802-1.123s-1.206-1.743-1.22-2.988h-.498v4.511h.498c.146-.43.361-.644.635-.644.132 0 .439.098.976.264 1.172.42 2.138.62 2.9.62a4.57 4.57 0 0 0 3.354-1.386 4.59 4.59 0 0 0 1.396-3.358c0-1.015-.308-1.919-.918-2.705s-1.787-1.709-3.554-2.758c-1.513-.913-2.504-1.66-2.958-2.236-.444-.541-.688-1.219-.688-1.918-.026-.705.282-1.381.83-1.826.552-.454 1.269-.683 2.172-.683 1.015 0 1.855.303 2.529.908.696.665 1.115 1.568 1.172 2.529h.498v-3.905h-.464c-.059.195-.107.327-.156.39s-.137.088-.269.088c-.161 0-.449-.068-.854-.195-.879-.293-1.679-.439-2.416-.439zm16.256 0c-1.64 0-3.124.391-4.477 1.162-1.337.763-2.444 1.872-3.202 3.212a8.59 8.59 0 0 0-1.176 4.364 8.35 8.35 0 0 0 2.05 5.551c1.367 1.621 3.017 2.636 4.921 3.027.439.229 1.059.815 1.874 1.757.928 1.074 1.699 1.845 2.343 2.304a7.03 7.03 0 0 0 2.06 1.02c.77.228 1.57.34 2.372.332 1.035 0 1.953-.181 2.782-.552l-.185-.454c-.474.171-.976.254-1.513.254-.723 0-1.45-.244-2.182-.718s-1.645-1.391-2.734-2.734l-1.064-1.211c2.089-.405 3.808-1.416 5.14-3.036 1.311-1.545 2.023-3.51 2.006-5.536a8.3 8.3 0 0 0-2.612-6.204c-1.738-1.684-3.871-2.538-6.405-2.538zm10.154 0l.024.537c1.094 0 1.709.322 1.84.967.049.229.073.659.078 1.269l-.01 11.775c-.01.879-.137 1.44-.376 1.684s-.649.391-1.24.454l-.025.537h10.886l.278-2.67h-.498c-.147.732-.469 1.25-.986 1.543s-1.44.439-2.768.439h-1.025c-1.196 0-1.884-.43-2.07-1.298a2.73 2.73 0 0 1-.054-.556l.049-11.911c0-.879.112-1.464.342-1.757s.649-.449 1.255-.488l-.024-.537zm-9.978.644c1.776-.039 3.463.781 4.53 2.202 1.172 1.465 1.748 3.486 1.748 6.039 0 2.421-.586 4.354-1.757 5.809a5.71 5.71 0 0 1-4.686 2.182c-1.794.042-3.494-.799-4.55-2.25-1.162-1.504-1.738-3.456-1.738-5.858 0-2.465.586-4.393 1.757-5.916s2.734-2.207 4.706-2.207zm25.043 2.538c-.264 0-.469.088-.62.269a.73.73 0 0 0-.146.664 1.17 1.17 0 0 0 .43.674c.229.195.478.293.742.293s.454-.098.596-.293.185-.415.132-.674-.195-.488-.41-.664a1.12 1.12 0 0 0-.718-.269zm7.176 1.806c-.449 1.738-1.43 2.675-2.929 2.831l.02.498h1.757l-.025 5.868.098 2.016c.171.815.708 1.23 1.596 1.23 1.289 0 2.636-.781 4.052-2.358l-.43-.366c-1.025 1.035-1.923 1.552-2.714 1.552-.488 0-.781-.278-.898-.83-.032-.156-.047-.315-.044-.474l.02-6.658h2.685l-.024-.796h-2.646v-2.529zm10.359 2.216c-1.499 0-2.719.732-3.661 2.172s-1.235 3.051-.864 4.818a4.15 4.15 0 0 0 1.318 2.402c.664.566 1.513.845 2.514.845.937 0 2.246-.244 2.792-.718s1.059-1.255 1.528-2.314l-.376-.391c-.747 1.377-2.255 2.07-3.398 2.07-1.562 0-2.524-.859-2.929-2.568-.047-.23-.082-.464-.102-.698 1.855-.293 3.271-.815 4.223-1.572s1.904-1.562 1.728-2.402c-.096-.481-.37-.908-.767-1.196-.405-.293-1.465-.454-2.05-.454zm-16.383.064l-3.232.742v.576l1.123-.146c.537 0 .859.244.962.732a3.95 3.95 0 0 1 .064.679l-.034 5.282c-.01.732-.088 1.157-.254 1.284s-.6.195-1.299.195l-.019.498h5.126l-.01-.498c-.713 0-1.171-.049-1.377-.166s-.342-.307-.4-.61c-.049-.22-.068-.596-.068-1.123l.02-7.454h-.586zm15.563.976c.312 0 .615.122.918.356s.488.498.537.781c.293 1.406-.952 2.372-3.759 2.914-.078-.976.098-1.953.552-2.792s1.035-1.269 1.748-1.269z" fill="#003b57"/><path d="M31.184 1.968H3.388C1.523 1.968 0 3.491 0 5.356v30.657C0 37.877 1.523 39.4 3.388 39.4h18.306c-.21-9.109 2.905-26.785 9.49-37.422z" fill="#0f80cc"/><path d="M30.173 2.955H3.388A2.39 2.39 0 0 0 .991 5.352v28.411c6.068-2.328 15.167-4.335 21.465-4.247 1.269-6.615 4.979-19.526 7.713-26.566z" fill="url(#A)"/><path d="M37.667.963c-1.953-1.699-4.208-1.015-6.483 1.001l-1.011.986c-3.891 4.135-7.503 11.779-8.626 17.623.488.889.781 2.016 1.006 2.929l.146.605.146.683s-.029-.142-.176-.552l-.098-.268a3.08 3.08 0 0 0-.059-.146c-.254-.586-.957-1.835-1.269-2.377-.245.718-.476 1.441-.693 2.168.893 1.63 1.435 4.428 1.435 4.428s-.049-.181-.273-.815c-.195-.561-1.191-2.294-1.425-2.704-.4 1.484-.561 2.441-.415 2.734.278.474.547 1.289.781 2.187.365 1.486.664 2.988.893 4.501l.034.415a41.32 41.32 0 0 0 .112 5.033c.176 2.114.503 3.93.976 4.906l.283-.156c-.615-1.914-.869-4.428-.757-7.322.166-4.428 1.186-9.763 3.066-15.328 3.173-8.396 7.591-15.133 11.628-18.355-3.681 3.319-8.66 14.079-10.154 18.062-1.67 4.462-2.851 8.64-3.564 12.658 1.23-3.759 5.209-5.37 5.209-5.37s1.953-2.407 4.227-5.843l-4.359 1.162-1.406.625s3.588-2.187 6.668-3.173c4.232-6.668 8.846-16.144 4.198-20.283" fill="#003b57"/></g></symbol></svg>